<svg id="Layer_1" data-name="Layer 1" xmlns="http://www.w3.org/2000/svg" viewBox="0 0 141.73 56.69"><defs><style>.cls-1{fill:#ef5323;}.cls-2{fill:#43499e;}</style></defs><path class="cls-1" d="M23.68,33.86V45.08H16.06V33.86a20.58,20.58,0,0,1,.34-4.08,10.18,10.18,0,0,1,1.23-3,9.62,9.62,0,0,1,3.67-3.42,10.93,10.93,0,0,1,10.61.34,9.43,9.43,0,0,1,3.69,4.24,8.43,8.43,0,0,1,.77,2.42,22.36,22.36,0,0,1,.21,3.53V45.08H29v-12c0-2.3-.92-3.46-2.65-3.46s-2.64,1.16-2.64,3.46Z"/><path class="cls-2" d="M84.3,45.08H76.69V33.45a16.5,16.5,0,0,1,.36-3.58,9.5,9.5,0,0,1,1.14-2.94,10.65,10.65,0,0,1,2-2.35A9.92,9.92,0,0,1,87,22.1q.38,0,1.05.06v7.73a3.82,3.82,0,0,0-1.18-.22,2.26,2.26,0,0,0-2.28,1.61,8.4,8.4,0,0,0-.28,2.65V45.08Z"/><path class="cls-2" d="M89.42,32.79V15.12H97V32.83A7,7,0,0,0,97.58,36,3.66,3.66,0,0,0,99,37.44a4.09,4.09,0,0,0,2,.52,3.94,3.94,0,0,0,2.1-.57,4,4,0,0,0,1.48-1.52,4.12,4.12,0,0,0,.55-2.1,4.07,4.07,0,0,0-.55-2.08,4.22,4.22,0,0,0-1.52-1.48,4.6,4.6,0,0,0-2.17-.52,7.49,7.49,0,0,0-2.51.52V22.39a11.69,11.69,0,0,1,2.44-.29,12.27,12.27,0,0,1,6,1.52,11.34,11.34,0,0,1,4.31,4.22,11.46,11.46,0,0,1,1.57,5.91A11.84,11.84,0,0,1,107,44a11.31,11.31,0,0,1-5.86,1.57A11.77,11.77,0,0,1,95.23,44a11.59,11.59,0,0,1-5.81-10Z"/><path class="cls-2" d="M132.2,22.17h4.2v7.62h-4.2v5a3.69,3.69,0,0,0,.73,2.51,3,3,0,0,0,2.31.77l1.16-.11v7.52a12.89,12.89,0,0,1-1.5.12,10.5,10.5,0,0,1-3.2-.48,10.12,10.12,0,0,1-5.06-3.54,11,11,0,0,1-1.25-2.21,9.6,9.6,0,0,1-.62-2.51,32.55,32.55,0,0,1-.18-3.74v-18h7.61Z"/><path class="cls-2" d="M118.4,24.08a5.39,5.39,0,0,1-3.81-1.57V45.08h7.64V22.49a5.41,5.41,0,0,1-3.83,1.59"/><path class="cls-1" d="M114.24,18.69a4.16,4.16,0,1,1,4.16,4.15,4.16,4.16,0,0,1-4.16-4.15"/><path class="cls-1" d="M9.49,24.07a5.37,5.37,0,0,1-3.8-1.57V45.08h7.63V22.48h0a5.37,5.37,0,0,1-3.83,1.59"/><path class="cls-1" d="M5.33,18.68a4.16,4.16,0,1,1,4.16,4.15,4.15,4.15,0,0,1-4.16-4.15"/><path class="cls-1" d="M58.3,32a5.2,5.2,0,1,1,5.2,5.19A5.19,5.19,0,0,1,58.3,32"/><path class="cls-1" d="M72,18.66a3.59,3.59,0,1,1,3.59,3.58A3.58,3.58,0,0,1,72,18.66"/><path class="cls-1" d="M64.56,12.12a2.08,2.08,0,1,1,2.08,2.08,2.08,2.08,0,0,1-2.08-2.08"/><path class="cls-2" d="M75.59,23.31h0a4.66,4.66,0,0,1-4.66-4.65,4.59,4.59,0,0,1,.73-2.48,12.12,12.12,0,0,0-3.07-1.83,2.93,2.93,0,0,1-2,.74,3,3,0,0,1-2.72-1.79c-4.6-.3-10,1.23-15.07,4.84-9.63,6.8-12.64,17-8.09,23.44s15.18,7,24.8.19c7.4-5.23,10.89-12.47,10-18.46M70,32A6.52,6.52,0,0,1,59.5,37.09c-5.84,2.7-11,1.72-13.48-1.76-3-4.21-1.21-10.9,6.06-16s14.17-4.57,17.14-.37c1.84,2.6,1.86,6.16-.11,9.71A6.44,6.44,0,0,1,70,32"/></svg>